<svg width="179" height="179" viewBox="0 0 179 179" fill="none" xmlns="http://www.w3.org/2000/svg">
<circle cx="89.5" cy="89.5" r="89.5" fill="url(#paint0_linear)"/>
<path d="M121.43 129H104.82V83.57C104.82 81.6633 104.857 79.17 104.93 76.09C105.077 73.01 105.187 70.2967 105.26 67.95C104.893 68.39 104.087 69.1967 102.84 70.37C101.667 71.47 100.567 72.46 99.54 73.34L90.52 80.6L82.49 70.59L107.79 50.46H121.43V129Z" fill="white" fill-opacity="0.46"/>
<path d="M102.85 91.73C102.85 100.163 101.933 107.387 100.1 113.4C98.34 119.413 95.4433 124.033 91.41 127.26C87.45 130.487 82.0967 132.1 75.35 132.1C65.89 132.1 58.96 128.543 54.56 121.43C50.16 114.243 47.96 104.343 47.96 91.73C47.96 83.2233 48.84 75.9633 50.6 69.95C52.36 63.9367 55.2567 59.3167 59.29 56.09C63.3233 52.8633 68.6767 51.25 75.35 51.25C84.7367 51.25 91.6667 54.8067 96.14 61.92C100.613 69.0333 102.85 78.97 102.85 91.73ZM64.46 91.73C64.46 100.677 65.23 107.423 66.77 111.97C68.31 116.443 71.17 118.68 75.35 118.68C79.4567 118.68 82.3167 116.443 83.93 111.97C85.5433 107.497 86.35 100.75 86.35 91.73C86.35 82.7833 85.5433 76.0367 83.93 71.49C82.3167 66.9433 79.4567 64.67 75.35 64.67C71.17 64.67 68.31 66.9433 66.77 71.49C65.23 76.0367 64.46 82.7833 64.46 91.73Z" fill="white" fill-opacity="0.29"/>
<defs>
<linearGradient id="paint0_linear" x1="4.25551e-07" y1="102.44" x2="179" y2="102.44" gradientUnits="userSpaceOnUse">
<stop stop-color="#6590FF"/>
<stop offset="0.0001" stop-color="#6590FF"/>
<stop offset="1" stop-color="#FF6593"/>
</linearGradient>
</defs>
</svg>
